<?xml version="1.0" encoding="UTF-8"?>
<svg width="20" height="20" viewBox="0 0 20 20" fill="none" xmlns="http://www.w3.org/2000/svg">
  <!-- Varinha Mágica com Sparkles -->
  <g id="magic-wand-add">
    <!-- Varinha -->
    <rect x="4" y="13" width="2" height="2" fill="#8B5FD6"/>
    <rect x="5" y="12" width="2" height="2" fill="#8B5FD6"/>
    <rect x="6" y="11" width="2" height="2" fill="#C9A7FF"/>
    <rect x="7" y="10" width="2" height="2" fill="#C9A7FF"/>
    <rect x="8" y="9" width="2" height="2" fill="#C9A7FF"/>
    <rect x="9" y="8" width="2" height="2" fill="#C9A7FF"/>
    <rect x="10" y="7" width="2" height="2" fill="#C9A7FF"/>
    <rect x="11" y="6" width="2" height="2" fill="#C9A7FF"/>
    <rect x="12" y="5" width="2" height="2" fill="#C9A7FF"/>
    
    <!-- Ponta estrela -->
    <rect x="13" y="4" width="2" height="2" fill="#FFE8A3"/>
    <rect x="14" y="3" width="2" height="2" fill="#FFE8A3"/>
    <rect x="15" y="4" width="1" height="1" fill="#FFE8A3"/>
    <rect x="13" y="3" width="1" height="1" fill="#FFE8A3"/>
    
    <!-- Sparkles -->
    <rect x="3" y="3" width="1" height="1" fill="#FFE8A3" opacity="0.9"/>
    <rect x="2" y="4" width="1" height="1" fill="#FFE8A3" opacity="0.7"/>
    <rect x="4" y="4" width="1" height="1" fill="#FFE8A3" opacity="0.7"/>
    <rect x="3" y="5" width="1" height="1" fill="#FFE8A3" opacity="0.9"/>
    
    <rect x="16" y="8" width="1" height="1" fill="#FFE8A3" opacity="0.9"/>
    <rect x="15" y="9" width="1" height="1" fill="#FFE8A3" opacity="0.7"/>
    <rect x="17" y="9" width="1" height="1" fill="#FFE8A3" opacity="0.7"/>
    <rect x="16" y="10" width="1" height="1" fill="#FFE8A3" opacity="0.9"/>
    
    <rect x="7" y="2" width="1" height="1" fill="#FFE8A3" opacity="0.6"/>
    <rect x="10" y="14" width="1" height="1" fill="#FFE8A3" opacity="0.6"/>
  </g>
</svg>