<?xml version="1.0" encoding="UTF-8"?>
<svg width="64" height="64" viewBox="0 0 64 64" fill="none" xmlns="http://www.w3.org/2000/svg">
  <!-- Gato Preto Mascote -->
  <g id="black-cat-mascot">
    <!-- Orelhas -->
    <rect x="16" y="12" width="2" height="2" fill="#171425"/>
    <rect x="18" y="10" width="2" height="4" fill="#171425"/>
    <rect x="20" y="8" width="2" height="6" fill="#171425"/>
    <rect x="22" y="10" width="2" height="4" fill="#171425"/>
    
    <rect x="40" y="10" width="2" height="4" fill="#171425"/>
    <rect x="42" y="8" width="2" height="6" fill="#171425"/>
    <rect x="44" y="10" width="2" height="4" fill="#171425"/>
    <rect x="46" y="12" width="2" height="2" fill="#171425"/>
    
    <!-- Interior das orelhas -->
    <rect x="20" y="11" width="2" height="2" fill="#F1A7C5" opacity="0.6"/>
    <rect x="42" y="11" width="2" height="2" fill="#F1A7C5" opacity="0.6"/>
    
    <!-- Cabeça -->
    <rect x="18" y="14" width="28" height="2" fill="#171425"/>
    <rect x="16" y="16" width="32" height="2" fill="#171425"/>
    <rect x="14" y="18" width="36" height="6" fill="#171425"/>
    <rect x="14" y="24" width="36" height="4" fill="#171425"/>
    <rect x="16" y="28" width="32" height="2" fill="#171425"/>
    <rect x="18" y="30" width="28" height="2" fill="#171425"/>
    
    <!-- Olhos -->
    <rect x="22" y="18" width="4" height="4" fill="#A7F0D8"/>
    <rect x="38" y="18" width="4" height="4" fill="#A7F0D8"/>
    <!-- Pupilas -->
    <rect x="24" y="19" width="2" height="3" fill="#0B0A16"/>
    <rect x="38" y="19" width="2" height="3" fill="#0B0A16"/>
    <!-- Brilho -->
    <rect x="22" y="18" width="1" height="1" fill="#F6F4FF"/>
    <rect x="40" y="18" width="1" height="1" fill="#F6F4FF"/>
    
    <!-- Nariz -->
    <rect x="30" y="24" width="4" height="2" fill="#F1A7C5"/>
    
    <!-- Boca -->
    <rect x="28" y="26" width="2" height="1" fill="#26213A"/>
    <rect x="34" y="26" width="2" height="1" fill="#26213A"/>
    
    <!-- Corpo -->
    <rect x="20" y="32" width="24" height="2" fill="#171425"/>
    <rect x="18" y="34" width="28" height="8" fill="#171425"/>
    <rect x="16" y="42" width="32" height="6" fill="#171425"/>
    <rect x="18" y="48" width="28" height="2" fill="#171425"/>
    
    <!-- Patas -->
    <rect x="20" y="48" width="6" height="6" fill="#171425"/>
    <rect x="38" y="48" width="6" height="6" fill="#171425"/>
    <!-- Almofadinhas -->
    <rect x="21" y="52" width="4" height="2" fill="#F1A7C5" opacity="0.5"/>
    <rect x="39" y="52" width="4" height="2" fill="#F1A7C5" opacity="0.5"/>
    
    <!-- Cauda -->
    <rect x="44" y="38" width="4" height="2" fill="#171425"/>
    <rect x="48" y="36" width="4" height="4" fill="#171425"/>
    <rect x="50" y="32" width="4" height="4" fill="#171425"/>
    <rect x="52" y="28" width="4" height="4" fill="#171425"/>
    <rect x="50" y="26" width="4" height="2" fill="#171425"/>
    
    <!-- Colar com lua -->
    <rect x="24" y="32" width="16" height="1" fill="#C9A7FF"/>
    <!-- Pingente de lua -->
    <rect x="30" y="33" width="4" height="4" fill="#FFE8A3"/>
    <rect x="31" y="34" width="2" height="2" fill="#171425" opacity="0.3"/>
    
    <!-- Detalhes místicos - terceiro olho -->
    <rect x="31" y="15" width="2" height="2" fill="#C9A7FF" opacity="0.8"/>
    
    <!-- Sparkles ao redor -->
    <rect x="10" y="20" width="2" height="2" fill="#FFE8A3" opacity="0.7"/>
    <rect x="52" y="18" width="2" height="2" fill="#FFE8A3" opacity="0.7"/>
    <rect x="12" y="40" width="2" height="2" fill="#C9A7FF" opacity="0.6"/>
    <rect x="50" y="44" width="2" height="2" fill="#F1A7C5" opacity="0.6"/>
  </g>
</svg>