<?xml version="1.0" standalone="no"?>
<svg viewBox="0 0 500 500" class="w-full h-full max-w-[500px]" xmlns="http://www.w3.org/2000/svg" style="opacity: 1;"><path d="M320 380 C 350 380, 420 350, 410 260 C 405 240, 390 240, 395 260" fill="none" stroke="#202020" stroke-width="35" stroke-linecap="round"/><path d="M 190 290 Q 130 360 120 450 L 380 450 Q 370 360 310 290 Z" fill="#6a0dad"/><ellipse cx="250" cy="380" rx="90" ry="80" fill="#202020"/><g><ellipse cx="210" cy="450" rx="25" ry="15" fill="#202020"/><ellipse cx="290" cy="450" rx="25" ry="15" fill="#202020"/></g><g><path d="M 200 290 Q 250 320 300 290" stroke="#6a0dad" stroke-width="20" fill="none" stroke-linecap="round"/><path d="M 250 300 A 14 14 0 1 1 242 325 A 11 11 0 1 0 250 300" fill="#FFD700" transform="translate(0, 5) rotate(-10, 250, 315)"/></g><g transform="translate(0, 0)" style="transition: transform 0.3s ease-out;"><ellipse cx="250" cy="220" rx="100" ry="85" fill="#202020"/><path d="M170 180 L 160 100 L 220 150 Z" fill="#202020"/><path d="M175 170 L 170 120 L 205 155 Z" fill="#ffb6c1"/><path d="M330 180 L 340 100 L 280 150 Z" fill="#202020"/><path d="M325 170 L 330 120 L 295 155 Z" fill="#ffb6c1"/><g><ellipse cx="210" cy="220" rx="25" ry="30" fill="#FFD700"/><ellipse cx="210" cy="220" rx="8" ry="20" fill="#000000"/><ellipse cx="290" cy="220" rx="25" ry="30" fill="#FFD700"/><ellipse cx="290" cy="220" rx="8" ry="20" fill="#000000"/><circle cx="218" cy="210" r="5" fill="white" opacity="0.6"/><circle cx="298" cy="210" r="5" fill="white" opacity="0.6"/></g><ellipse cx="250" cy="260" rx="8" ry="5" fill="#ffb6c1"/><g><path d="M250 265 Q 240 280 230 270" stroke="#666" stroke-width="3" fill="none" stroke-linecap="round"/><path d="M250 265 Q 260 280 270 270" stroke="#666" stroke-width="3" fill="none" stroke-linecap="round"/></g><g stroke="#888" stroke-width="2" opacity="0.6"><line x1="180" y1="260" x2="140" y2="250"/><line x1="180" y1="270" x2="140" y2="275"/><line x1="320" y1="260" x2="360" y2="250"/><line x1="320" y1="270" x2="360" y2="275"/></g></g></svg>