<?xml version="1.0" encoding="UTF-8"?>
<svg width="24" height="24" viewBox="0 0 24 24" fill="none" xmlns="http://www.w3.org/2000/svg">
  <!-- Lua Crescente Pixel Art -->
  <g id="moon-crescent">
    <!-- Contorno principal -->
    <rect x="10" y="3" width="2" height="1" fill="#C9A7FF"/>
    <rect x="8" y="4" width="2" height="1" fill="#C9A7FF"/>
    <rect x="12" y="4" width="2" height="1" fill="#C9A7FF"/>
    <rect x="6" y="5" width="2" height="1" fill="#C9A7FF"/>
    <rect x="14" y="5" width="2" height="1" fill="#C9A7FF"/>
    <rect x="5" y="6" width="1" height="2" fill="#C9A7FF"/>
    <rect x="16" y="6" width="1" height="2" fill="#C9A7FF"/>
    <rect x="4" y="8" width="1" height="2" fill="#C9A7FF"/>
    <rect x="17" y="8" width="1" height="2" fill="#C9A7FF"/>
    <rect x="4" y="10" width="1" height="2" fill="#C9A7FF"/>
    <rect x="17" y="10" width="1" height="2" fill="#C9A7FF"/>
    <rect x="4" y="12" width="1" height="2" fill="#C9A7FF"/>
    <rect x="17" y="12" width="1" height="2" fill="#C9A7FF"/>
    <rect x="5" y="14" width="1" height="2" fill="#C9A7FF"/>
    <rect x="16" y="14" width="1" height="2" fill="#C9A7FF"/>
    <rect x="6" y="16" width="2" height="1" fill="#C9A7FF"/>
    <rect x="14" y="16" width="2" height="1" fill="#C9A7FF"/>
    <rect x="8" y="17" width="2" height="1" fill="#C9A7FF"/>
    <rect x="12" y="17" width="2" height="1" fill="#C9A7FF"/>
    <rect x="10" y="18" width="2" height="1" fill="#C9A7FF"/>
    
    <!-- Preenchimento interno -->
    <rect x="10" y="5" width="2" height="12" fill="#C9A7FF" opacity="0.3"/>
    <rect x="8" y="6" width="2" height="10" fill="#C9A7FF" opacity="0.3"/>
    <rect x="12" y="6" width="2" height="10" fill="#C9A7FF" opacity="0.3"/>
    <rect x="6" y="8" width="2" height="6" fill="#C9A7FF" opacity="0.3"/>
    <rect x="14" y="8" width="2" height="6" fill="#C9A7FF" opacity="0.3"/>
    
    <!-- Efeito crescente -->
    <rect x="11" y="7" width="3" height="1" fill="#0B0A16"/>
    <rect x="12" y="8" width="3" height="1" fill="#0B0A16"/>
    <rect x="13" y="9" width="3" height="2" fill="#0B0A16"/>
    <rect x="13" y="11" width="3" height="2" fill="#0B0A16"/>
    <rect x="12" y="13" width="3" height="1" fill="#0B0A16"/>
    <rect x="11" y="14" width="3" height="1" fill="#0B0A16"/>
  </g>
  
  <!-- Estrelas decorativas -->
  <rect x="3" y="3" width="1" height="1" fill="#FFE8A3" opacity="0.8"/>
  <rect x="20" y="5" width="1" height="1" fill="#FFE8A3" opacity="0.8"/>
  <rect x="19" y="16" width="1" height="1" fill="#FFE8A3" opacity="0.8"/>
</svg>